<svg width="24" height="24" viewBox="0 0 24 24" fill="none" xmlns="http://www.w3.org/2000/svg">
<path d="M12 1.5C6.2 1.5 1.5 6.2 1.5 12C1.5 17.8 6.2 22.5 12 22.5C17.8 22.5 22.5 17.8 22.5 12C22.5 6.2 17.8 1.5 12 1.5ZM12 20C7.58 20 4 16.42 4 12C4 7.58 7.58 4 12 4C16.42 4 20 7.58 20 12C20 16.42 16.42 20 12 20Z" fill="#00A86C"/>
<path d="M14.5884 8.55005L10.8384 12.57L9.41844 11.0501C8.94844 10.5501 8.15844 10.52 7.64844 10.99C7.14844 11.46 7.11844 12.2501 7.58844 12.7601L9.91844 15.2601C10.1584 15.5101 10.4884 15.66 10.8284 15.66C11.1684 15.66 11.5084 15.5201 11.7384 15.2601L16.4084 10.2601C16.8784 9.76005 16.8484 8.96005 16.3484 8.49005C15.8484 8.02005 15.0484 8.05005 14.5784 8.55005H14.5884Z" fill="#00A86C"/>
</svg>
