<svg width="41" height="41" viewBox="0 0 41 41" fill="none" xmlns="http://www.w3.org/2000/svg">
<path fill-rule="evenodd" clip-rule="evenodd" d="M13.3946 20.7482L27.7448 4.00547C28.8388 2.72918 30.907 3.68763 30.6598 5.35515L28.8157 16.8481L33.808 16.8486C35.4972 16.8486 36.4406 18.7517 35.5003 20.087L35.3729 20.2508L21.0226 36.9953C19.931 38.2689 17.8343 37.3159 18.1076 35.6456L19.9498 24.1516L14.9594 24.1522C13.2703 24.1522 12.3292 22.2515 13.2646 20.9158L13.3946 20.7482ZM11.9557 5.12508C11.0122 5.12508 10.2474 5.88993 10.2474 6.83341C10.2474 7.7769 11.0122 8.54175 11.9557 8.54175H18.7891C19.7325 8.54175 20.4974 7.7769 20.4974 6.83341C20.4974 5.88993 19.7325 5.12508 18.7891 5.12508H11.9557ZM5.1224 11.9584C4.17891 11.9584 3.41406 12.7233 3.41406 13.6667C3.41406 14.6102 4.17891 15.3751 5.1224 15.3751H15.3724C16.3159 15.3751 17.0807 14.6102 17.0807 13.6667C17.0807 12.7233 16.3159 11.9584 15.3724 11.9584H5.1224ZM5.1224 20.5001C5.1224 19.5566 5.88724 18.7917 6.83073 18.7917H10.2474C11.1909 18.7917 11.9557 19.5566 11.9557 20.5001C11.9557 21.4436 11.1909 22.2084 10.2474 22.2084H6.83073C5.88724 22.2084 5.1224 21.4436 5.1224 20.5001Z" fill="url(#paint0_linear_3442_598)"/>
<defs>
<linearGradient id="paint0_linear_3442_598" x1="3.41406" y1="20.324" x2="34.1844" y2="27.5309" gradientUnits="userSpaceOnUse">
<stop stop-color="#FFBA42"/>
<stop offset="0.960927" stop-color="#FFF5E3"/>
</linearGradient>
</defs>
</svg>
